# Rhino

g object_1
v 3.368055582046509 3.368055582046509 3.819444417953491
v 6.63194465637207 3.368055582046509 3.819444417953491
v 6.63194465637207 6.63194465637207 3.819444417953491
v 3.368055582046509 6.63194465637207 3.819444417953491
v 6.63194465637207 1.180555582046509 1.631944417953491
v 3.368055582046509 1.180555582046509 1.631944417953491
v 8.81944465637207 6.63194465637207 1.631944417953491
v 8.81944465637207 3.368055582046509 1.631944417953491
v 3.368055582046509 8.81944465637207 1.631944417953491
v 6.63194465637207 8.81944465637207 1.631944417953491
v 1.180555582046509 3.368055582046509 1.631944417953491
v 1.180555582046509 6.63194465637207 1.631944417953491
v 3.489583253860474 2.005208253860474 2.994791746139526
v 5 3.246527671813965 4.097222328186035
v 3.246527671813965 5 4.097222328186035
v 2.005208253860474 3.489583253860474 2.994791746139526
v 6.510416984558106 2.005208253860474 2.994791746139526
v 7.994791984558106 3.489583253860474 2.994791746139526
v 6.753472328186035 5 4.097222328186035
v 7.994791984558106 6.510416984558106 2.994791746139526
v 6.510416984558106 7.994791984558106 2.994791746139526
v 5 6.753472328186035 4.097222328186035
v 3.489583253860474 7.994791984558106 2.994791746139526
v 2.005208253860474 6.510416984558106 2.994791746139526
v 3.246527671813965 0.9027777910232544 0
v 6.753472328186035 0.9027777910232544 0
v 7.994791984558106 2.005208253860474 1.510416746139526
v 5 0.9027777910232544 1.753472328186035
v 2.005208253860474 2.005208253860474 1.510416746139526
v 9.097222328186035 3.246527671813965 0
v 9.097222328186035 6.753472328186035 0
v 7.994791984558106 7.994791984558106 1.510416746139526
v 9.097222328186035 5 1.753472328186035
v 6.753472328186035 9.097222328186035 0
v 3.246527671813965 9.097222328186035 0
v 2.005208253860474 7.994791984558106 1.510416746139526
v 5 9.097222328186035 1.753472328186035
v 0.9027777910232544 6.753472328186035 0
v 0.9027777910232544 3.246527671813965 0
v 0.9027777910232544 5 1.753472328186035
v 5 5 4.392361164093018
v 5 0.6076388955116272 0
v 9.392360687255859 5 0
v 5 9.392360687255859 0
v 0.6076388955116272 5 0
v 5 1.783854007720947 3.216145992279053
v 8.216145515441895 5 3.216145992279053
v 5 8.216145515441895 3.216145992279053
v 1.783854007720947 5 3.216145992279053
v 8.216145515441895 1.783854007720947 0
v 1.783854007720947 1.783854007720947 0
v 8.216145515441895 8.216145515441895 0
v 1.783854007720947 8.216145515441895 0
v 2.45370364189148 2.45370364189148 2.546296358108521
v 7.546297073364258 2.45370364189148 2.546296358108521
v 2.45370364189148 7.546297073364258 2.546296358108521
v 7.546297073364258 7.546297073364258 2.546296358108521
vn -0.3522928953170776 -0.3522928953170776 0.8670521378517151
vn 0.3522928953170776 -0.3522928655147553 0.8670521378517151
vn 0.3522928655147553 0.3522928655147553 0.8670521974563599
vn -0.3522928655147553 0.3522928953170776 0.8670521378517151
vn 0.3522928953170776 -0.8670521974563599 0.3522928357124329
vn -0.3522928953170776 -0.8670521378517151 0.3522928953170776
vn 0.8670522570610046 0.3522928059101105 0.3522927761077881
vn 0.8670521974563599 -0.3522928059101105 0.3522928059101105
vn -0.3522928059101105 0.8670521974563599 0.3522928059101105
vn 0.3522928059101105 0.8670522570610046 0.3522927761077881
vn -0.8670521378517151 -0.3522928953170776 0.3522928953170776
vn -0.8670521974563599 0.3522928953170776 0.3522928357124329
vn -0.3526979982852936 -0.6616661548614502 0.6616660952568054
vn -9.901650166455056e-09 -0.3535585105419159 0.9354124069213867
vn -0.3535585105419159 -9.901650166455056e-09 0.9354124069213867
vn -0.6616661548614502 -0.3526979982852936 0.6616660952568054
vn 0.3526979386806488 -0.6616661548614502 0.6616661548614502
vn 0.6616661548614502 -0.3526978492736816 0.6616661548614502
vn 0.3535585403442383 -9.901644837384538e-09 0.9354124069213867
vn 0.6616661548614502 0.3526978194713593 0.6616661548614502
vn 0.3526978194713593 0.6616661548614502 0.6616661548614502
vn -9.901644837384538e-09 0.3535585403442383 0.9354124069213867
vn -0.3526978492736816 0.6616661548614502 0.6616661548614502
vn -0.6616661548614502 0.3526979386806488 0.6616661548614502
vn -0.3476200699806213 -0.9197010397911072 0.182511106133461
vn 0.3476200997829437 -0.9197010397911072 0.1825110167264938
vn 0.6616661548614502 -0.6616661548614502 0.3526978492736816
vn -9.901649278276636e-09 -0.9354124069213867 0.3535584807395935
vn -0.6616661548614502 -0.6616661548614502 0.3526979684829712
vn 0.919701099395752 -0.347620040178299 0.1825109124183655
vn 0.919701099395752 0.3476200699806213 0.1825108230113983
vn 0.661666214466095 0.661666214466095 0.3526977300643921
vn 0.9354124069213867 -9.90163773195718e-09 0.3535584807395935
vn 0.3476200699806213 0.919701099395752 0.1825108230113983
vn -0.347620040178299 0.919701099395752 0.1825109124183655
vn -0.6616661548614502 0.6616661548614502 0.3526978492736816
vn -9.90163773195718e-09 0.9354124069213867 0.3535584807395935
vn -0.9197010397911072 0.3476200997829437 0.1825110167264938
vn -0.9197010397911072 -0.3476200699806213 0.182511106133461
vn -0.9354124069213867 -9.901650166455056e-09 0.3535584807395935
vn -5.533367097854125e-09 -5.533367097854125e-09 1
vn -5.4503015434193e-09 -0.9849879741668701 0.1726230084896088
vn 0.9849879741668701 -5.450292217545893e-09 0.1726228147745132
vn -5.450292217545893e-09 0.9849879741668701 0.1726228147745132
vn -0.9849879741668701 -5.4503015434193e-09 0.1726230084896088
vn -1.441590669060133e-08 -0.7071067690849304 0.7071067690849304
vn 0.7071067690849304 -1.441589336792504e-08 0.7071067690849304
vn -1.441589336792504e-08 0.7071067690849304 0.7071067690849304
vn -0.7071067690849304 -1.441590669060133e-08 0.7071067690849304
vn 0.6936981678009033 -0.6936982274055481 0.1938186436891556
vn -0.6936981678009033 -0.6936981678009033 0.1938188374042511
vn 0.6936982274055481 0.6936982274055481 0.1938184648752213
vn -0.6936982274055481 0.6936981678009033 0.1938186436891556
vn -0.5773502588272095 -0.5773502588272095 0.5773502588272095
vn 0.5773502588272095 -0.5773502588272095 0.5773502588272095
vn -0.5773502588272095 0.5773502588272095 0.5773502588272095
vn 0.5773502588272095 0.5773502588272095 0.5773502588272095
f 38//38 45//45 40//40 12//12
f 53//53 38//38 12//12 36//36
f 39//39 51//51 29//29 11//11
f 45//45 39//39 11//11 40//40
f 34//34 44//44 37//37 10//10
f 52//52 34//34 10//10 32//32
f 35//35 53//53 36//36 9//9
f 44//44 35//35 9//9 37//37
f 30//30 43//43 33//33 8//8
f 50//50 30//30 8//8 27//27
f 31//31 52//52 32//32 7//7
f 43//43 31//31 7//7 33//33
f 25//25 42//42 28//28 6//6
f 51//51 25//25 6//6 29//29
f 26//26 50//50 27//27 5//5
f 42//42 26//26 5//5 28//28
f 36//36 12//12 24//24 56//56
f 12//12 40//40 49//49 24//24
f 40//40 11//11 16//16 49//49
f 11//11 29//29 54//54 16//16
f 32//32 10//10 21//21 57//57
f 10//10 37//37 48//48 21//21
f 37//37 9//9 23//23 48//48
f 9//9 36//36 56//56 23//23
f 27//27 8//8 18//18 55//55
f 8//8 33//33 47//47 18//18
f 33//33 7//7 20//20 47//47
f 7//7 32//32 57//57 20//20
f 29//29 6//6 13//13 54//54
f 6//6 28//28 46//46 13//13
f 28//28 5//5 17//17 46//46
f 5//5 27//27 55//55 17//17
f 24//24 4//4 23//23 56//56
f 4//4 22//22 48//48 23//23
f 15//15 41//41 22//22 4//4
f 49//49 15//15 4//4 24//24
f 22//22 3//3 21//21 48//48
f 3//3 20//20 57//57 21//21
f 19//19 47//47 20//20 3//3
f 41//41 19//19 3//3 22//22
f 14//14 2//2 19//19 41//41
f 2//2 18//18 47//47 19//19
f 17//17 55//55 18//18 2//2
f 46//46 17//17 2//2 14//14
f 16//16 1//1 15//15 49//49
f 1//1 14//14 41//41 15//15
f 13//13 46//46 14//14 1//1
f 54//54 13//13 1//1 16//16
